<?xml version="1.0" encoding="utf-8"?>
<!-- Generator: Adobe Illustrator 19.2.1, SVG Export Plug-In . SVG Version: 6.00 Build 0)  -->
<svg version="1.1" id="Layer_1" xmlns="http://www.w3.org/2000/svg" xmlns:xlink="http://www.w3.org/1999/xlink" x="0px" y="0px"
	 viewBox="0 0 160 48.1" style="enable-background:new 0 0 160 48.1;" xml:space="preserve">
<style type="text/css">
	.st0{fill:#0056A4;}
</style>
<path class="st0" d="M148,34.2c0.4-0.3,0.7-0.6,1-1c2.7-2.7,4.1-5.9,4.5-9.9c0.1-0.5,0.1-0.8,0.1-1.2c0.1-0.5,0.2-2,0.2-3.3
	c0-1.5-0.2-3.3-0.2-3.3c-0.1-2.7-1-4.8-2.8-6.5c-1.3-1.3-2.8-2.1-4.4-2.5c-0.7-0.2-1.5-0.3-2.2-0.3H144c-1.1,0-2.1,0.2-3.1,0.5
	c-0.7,0.3-1.4,0.6-2,1c-0.6,0.4-1.1,0.8-1.6,1.3l-0.1,0.1c-1.4,1.4-2.2,3.1-2.5,5.3c-0.1,0.4-0.1,0.8-0.2,1.2c0,0-0.2,1.7-0.2,3.4
	c0,1.4,0.1,2.9,0.2,3.3l0,0l0,0.1v0.1c0.1,2.4,0.9,4.5,2.3,6.1c-1.5-0.2-2.7-0.8-3.7-1.8c-0.9-0.9-1.5-1.9-1.7-3.2
	c-0.1-0.4-0.1-0.7-0.2-1.1l0,0l-0.1-0.3c0,0-0.2-1.9-0.2-3.2c0-0.5,0-1.1,0.1-1.9c0.1-0.7,0.1-1.2,0.1-1.3c0.2-2.5,0.7-4.4,1.5-6.1
	c0.5-0.9,1.1-1.8,1.8-2.6c0.1-0.2,0.3-0.3,0.4-0.4c1.8-1.8,3.7-2.9,5.9-3.4c1-0.2,2-0.4,3-0.4h0.3c1,0,2,0.1,2.9,0.3
	c2.3,0.5,4.2,1.6,6,3.4c2.4,2.4,3.5,5,3.7,9c0,0,0.1,2.1,0.1,3.1c0,1.1-0.1,3.2-0.1,3.2l0,0c-0.2,3.8-1.4,6.6-3.7,9
	C151.6,32.6,149.9,33.6,148,34.2 M133.9,3.7c-0.4,0.3-0.7,0.6-1,1c-2.9,2.9-4.3,6.2-4.6,11c0,0.2-0.2,2-0.2,3.4
	c0,1.2,0.1,2.8,0.2,3.3v0.2c0.1,0.5,0.1,1,0.2,1.5c0.4,2,1.2,3.6,2.6,5c0.2,0.2,0.3,0.3,0.4,0.4l0.1,0.1c0.9,0.8,1.9,1.4,3,1.8
	c1,0.4,2.1,0.6,3.2,0.6h0.3c2.1,0,4-0.7,5.7-2c0.2-0.2,0.4-0.3,0.6-0.5l0.1-0.1c0.1-0.1,0.2-0.2,0.3-0.3c0,0,0.1-0.1,0.1-0.1
	c1.7-1.7,2.6-3.8,2.7-6.5v-0.1c0-0.4,0.2-2.4,0.2-3.3c0-1-0.2-3.3-0.2-3.3c-0.1-2.5-0.9-4.5-2.4-6.1c1.4,0.2,2.7,0.8,3.7,1.8
	c1.2,1.2,1.8,2.6,1.9,4.5c0,0.2,0.1,1.8,0.1,3.1c0,1.4-0.2,3.8-0.2,4.1c-0.2,1.9-0.6,3.6-1.4,5c-0.5,1-1.1,1.8-1.8,2.6
	c-0.2,0.2-0.3,0.3-0.4,0.4c-1.8,1.8-3.7,2.9-5.9,3.4c-1,0.2-2,0.4-3,0.4h-0.3c-1,0-2-0.1-2.9-0.3c-2.3-0.5-4.2-1.6-6-3.4
	c-2.3-2.3-3.4-4.9-3.7-8.9v-0.1c0,0,0-0.3-0.1-0.8c-0.1-0.6-0.1-1.5-0.1-2.4c0-1.6,0.1-3.1,0.1-3.1c0.3-3.9,1.4-6.7,3.7-9
	C130.4,5.3,132,4.3,133.9,3.7 M144.1,22.1L144.1,22.1L144.1,22.1v0.1c-0.1,1.9-0.7,3.3-1.9,4.4c-0.3,0.3-0.6,0.6-0.9,0.8
	c-0.2,0.1-0.3,0.2-0.5,0.3c-0.5-0.3-1-0.7-1.4-1.1c-0.8-0.8-1.3-1.7-1.6-2.9c-0.2-0.5-0.2-1.1-0.3-1.6v-0.1c0,0-0.2-1.7-0.2-3.2
	s0.2-3.1,0.2-3.1c0.2-1.7,0.6-2.9,1.3-3.9c0.2-0.3,0.4-0.5,0.6-0.7c0.4-0.4,0.9-0.8,1.4-1.1c0.1,0.1,0.1,0.1,0.2,0.1l0.1,0.1
	c0.4,0.3,0.8,0.6,1.2,0.9c1.2,1.2,1.8,2.6,1.9,4.5c0,0.4,0.1,2.4,0.1,3.1C144.2,19.6,144.1,21.6,144.1,22.1L144.1,22.1L144.1,22.1z
	 M159.9,15.6L159.9,15.6c-0.3-4.7-1.7-8.1-4.6-11c-3.1-3.1-6.8-4.6-11.1-4.6H144c-1.1,0-2.1,0.1-3,0.3c-1-0.2-2-0.3-3-0.3h-0.3
	c-4.3,0-8,1.6-11.1,4.6c-2.9,2.9-4.3,6.4-4.6,11c-0.1,0.4-0.1,1.9-0.1,3.3c0,1.5,0.1,3,0.1,3.4c0.4,4.8,1.7,8.1,4.6,11
	c3.1,3.1,6.8,4.6,11.1,4.6h0.3c1.1,0,2.1-0.1,3-0.3c1,0.2,2,0.3,3,0.3h0.3c4.3,0,8-1.6,11.1-4.6c2.9-2.9,4.4-6.4,4.6-11
	c0,0,0.1-2.2,0.1-3.4C160,17.7,159.9,15.6,159.9,15.6"/>
<polygon class="st0" points="3.9,37.7 1,37.7 1,36.9 7.6,36.9 7.6,37.7 4.7,37.7 4.7,45.7 3.9,45.7 "/>
<path class="st0" d="M7.7,39.4h0.8v1.3l0,0c0.5-0.8,1.3-1.4,2.5-1.4h0.2l-0.1,0.8h-0.3c-1.1,0-1.9,0.6-2.3,1.6v4.1H7.7
	C7.7,45.7,7.7,39.4,7.7,39.4z"/>
<path class="st0" d="M16.5,44.1v-2c-2.7,0.5-3.5,1.1-3.5,2c0,0.7,0.5,1,1.2,1C15.1,45.1,15.9,44.8,16.5,44.1 M12.3,44.2
	c0-1.3,1.1-2.2,4.3-2.7v-0.3c0-0.9-0.5-1.3-1.3-1.3c-1,0-1.7,0.4-2.4,1l-0.5-0.5c0.8-0.7,1.6-1.2,2.9-1.2c1.4,0,2,0.8,2,2v2.9
	c0,0.8,0.1,1.3,0.2,1.6h-0.9c-0.1-0.3-0.2-0.6-0.2-0.9c-0.8,0.7-1.6,1-2.5,1C12.9,45.8,12.3,45.2,12.3,44.2"/>
<path class="st0" d="M23.9,44.1V41c-0.6-0.7-1.3-1.1-2-1.1c-1.1,0-1.9,0.8-1.9,2.6c0,1.8,0.9,2.6,1.9,2.6
	C22.7,45.1,23.3,44.7,23.9,44.1 M19.2,42.6c0-2.2,1.2-3.3,2.7-3.3c0.8,0,1.6,0.5,2.1,1v-3.4h0.8v7.3c0,0.8,0.1,1.3,0.2,1.6h-0.9
	c-0.1-0.2-0.2-0.6-0.2-0.9c-0.5,0.6-1.2,1.1-2.1,1.1C20.4,45.8,19.2,44.8,19.2,42.6"/>
<path class="st0" d="M31.2,42.1c-0.1-1.2-0.7-2.1-1.8-2.1c-0.9,0-1.8,0.7-1.9,2.1H31.2z M26.7,42.6c0-2.3,1.5-3.3,2.8-3.3
	c1.5,0,2.6,1.1,2.6,3.3v0.2h-4.5c0,1.6,0.9,2.4,2,2.4c1,0,1.5-0.4,2-1.2l0.5,0.4c-0.6,0.9-1.3,1.5-2.5,1.5
	C28,45.8,26.7,44.7,26.7,42.6"/>
<path class="st0" d="M36.5,39.4h0.9l0.9,3.1c0.3,0.8,0.4,1.3,0.6,2.2l0,0c0.3-0.9,0.4-1.4,0.6-2.2l0.9-3.1H41l0.9,3.2
	c0.3,0.8,0.4,1.3,0.6,2.1l0,0c0.3-0.9,0.4-1.3,0.6-2.1l0.9-3.2h0.8l-2,6.3H42l-1.4-5.2l0,0l-1.5,5.2h-0.8L36.5,39.4z"/>
<path class="st0" d="M46.5,39.4h0.8v6.3h-0.8V39.4z M46.5,37.1h0.9V38h-0.9V37.1z"/>
<path class="st0" d="M50.2,44.2v-4.1h-1.1v-0.7h1.1v-2.3H51v2.3h1.7v0.7H51v4c0,0.7,0.2,1.1,1,1.1c0.3,0,0.5,0,0.7-0.1v0.7
	c-0.2,0.1-0.5,0.1-0.8,0.1C50.6,45.8,50.2,45.3,50.2,44.2"/>
<path class="st0" d="M54.5,36.9h0.8v3.6c0.6-0.6,1.4-1.1,2.4-1.1c1.3,0,1.9,0.7,1.9,1.9v4.6h-0.8v-4.4c0-0.9-0.4-1.3-1.3-1.3
	c-0.8,0-1.5,0.4-2.2,1.1v4.6h-0.8V36.9z"/>
<path class="st0" d="M69.6,42.6c0-1.8-0.9-2.6-1.9-2.6c-0.8,0-1.4,0.4-2,1.1v3.1c0.6,0.7,1.3,1.1,2,1.1
	C68.8,45.1,69.6,44.3,69.6,42.6 M65,39.4h0.8v0.9c0.5-0.6,1.2-1,2.1-1c1.5,0,2.6,1.1,2.6,3.3s-1.2,3.3-2.7,3.3c-0.8,0-1.5-0.4-2.1-1
	v3.3H65L65,39.4L65,39.4z"/>
<path class="st0" d="M72.4,44v-4.6h0.8v4.4c0,0.9,0.4,1.3,1.3,1.3c0.8,0,1.5-0.5,2.2-1.1v-4.6h0.9v6.3h-0.9v-1
	c-0.6,0.6-1.4,1.1-2.4,1.1C73,45.8,72.4,45.1,72.4,44"/>
<path class="st0" d="M79.8,39.4h0.8v1.3l0,0c0.5-0.8,1.3-1.4,2.5-1.4h0.2l-0.1,0.8h-0.3c-1.1,0-1.9,0.6-2.3,1.6v4.1h-0.8V39.4z"/>
<path class="st0" d="M89.6,42.6c0-1.8-0.9-2.6-1.9-2.6c-0.8,0-1.4,0.4-2,1.1v3.1c0.6,0.7,1.3,1.1,2,1.1
	C88.8,45.1,89.6,44.3,89.6,42.6 M84.9,39.4h0.8v0.9c0.5-0.6,1.2-1,2.1-1c1.5,0,2.6,1.1,2.6,3.3s-1.2,3.3-2.7,3.3
	c-0.8,0-1.5-0.4-2.1-1v3.3h-0.8L84.9,39.4L84.9,39.4z"/>
<path class="st0" d="M96.9,42.6c0-1.4-0.7-2.6-2-2.6c-1.3,0-2.1,1.1-2.1,2.6c0,1.4,0.7,2.6,2.1,2.6C96.2,45.1,96.9,44.1,96.9,42.6
	 M92,42.6c0-2.1,1.3-3.3,2.9-3.3c1.6,0,2.9,1.2,2.9,3.3s-1.3,3.3-2.9,3.3C93.4,45.8,92,44.7,92,42.6"/>
<path class="st0" d="M99.1,44.7l0.5-0.5c0.5,0.6,1.1,0.9,2,0.9c1.1,0,1.7-0.4,1.7-1.1c0-0.7-0.5-1-1.8-1.3c-1.5-0.4-2.2-0.8-2.2-1.9
	c0-0.9,0.8-1.7,2.2-1.7c1.1,0,1.8,0.4,2.4,0.9l-0.5,0.6c-0.5-0.5-1.1-0.8-1.9-0.8c-1,0-1.4,0.5-1.4,1c0,0.6,0.5,0.9,1.6,1.1
	c1.6,0.4,2.4,0.8,2.4,2c0,1.2-1.1,1.8-2.5,1.8C100.5,45.8,99.6,45.3,99.1,44.7"/>
<path class="st0" d="M110.1,42.1c-0.1-1.2-0.7-2.1-1.8-2.1c-0.9,0-1.8,0.7-1.9,2.1H110.1z M105.6,42.6c0-2.3,1.5-3.3,2.8-3.3
	c1.5,0,2.6,1.1,2.6,3.3v0.2h-4.5c0,1.6,0.9,2.4,2,2.4c1,0,1.5-0.4,2-1.2l0.5,0.4c-0.6,0.9-1.3,1.5-2.5,1.5
	C106.9,45.8,105.6,44.7,105.6,42.6"/>
<path class="st0" d="M26.2,29.2H21V16.8c0-5.2,3-8.1,8.5-8.1c2.8,0,4.8,0.9,5.9,2.6c1.2-1.7,3.2-2.6,5.9-2.6c5.9,0,8.4,2.7,8.4,8.1
	v12.3h-5.2V16.8c0-2.1-0.5-3.2-3.2-3.2c-2.9,0-3.4,1.1-3.4,3.2v12.3h-5.1V16.8c0-2.1-0.5-3.2-3.3-3.2s-3.3,1.1-3.3,3.2V29.2z"/>
<path class="st0" d="M52.6,10.1l3.6-0.8V7.6c0-6,3.3-7.6,7.7-7.6c1.6,0,3.1,0.2,4.3,0.6v4.9c-1-0.3-2.3-0.5-3.9-0.5
	c-1.8,0-2.9,0.6-2.9,2.3v2.1h6.4v4.9h-6.4v15h-5.2v-15h-3.6V10.1z"/>
<path class="st0" d="M83,17.6c0-2.6-0.7-4-4.3-4c-3.6,0-4.4,1.4-4.4,4v3.2c0,2.6,0.8,4,4.4,4c3.6,0,4.3-1.4,4.3-4V17.6z M69.2,20.8
	v-3.2c0-5.7,3.4-8.8,9.6-8.8c6.5,0,9.5,3,9.5,8.8v3.2c0,5.7-3.3,8.8-9.5,8.8C72.2,29.6,69.2,26.7,69.2,20.8"/>
<path class="st0" d="M97,29.2h-5.2V16.1c0-4.7,2.8-7.3,8.3-7.3c1.1,0,1.7,0.1,2.5,0.3V14c-0.6-0.2-1.4-0.3-2.5-0.3
	c-2.6,0-3.1,1-3.1,2.8V29.2z"/>
<path class="st0" d="M105.7,9.3h5.2v19.9h-5.2V9.3z M108.3,0.2c1.7,0,3.1,1.5,3.1,3.1s-1.4,3.1-3.1,3.1c-1.7,0-3.1-1.4-3.1-3.1
	C105.2,1.6,106.6,0.2,108.3,0.2"/>
<path class="st0" d="M8.6,25.3c-1.8,0-3.4-0.2-3.4-2.1c0-1.5,0.9-2.2,2.8-2.2h4.1v1.2C12.1,23.9,10.4,25.3,8.6,25.3 M7.7,8.8
	c-2.1,0-4,0.2-5.4,0.7V14c1.2-0.5,3.4-0.8,5.7-0.8c2.5,0,4.2,0.4,4.2,2.4v1.5h-4C3.4,17.2,0,18.7,0,23.4c0,4.1,1.7,6.1,7.7,6.1
	c3,0,4.4-2.4,4.4-2.4v2.1h5.2v-7.8v-3.2v-2.6C17.3,10.4,13.5,8.8,7.7,8.8"/>
</svg>
