<svg xmlns:xlink="http://www.w3.org/1999/xlink" xmlns="http://www.w3.org/2000/svg" class="icon" width="118.289" height="50"><defs><symbol viewBox="0 0 118.289 50" id="icon-logo"><path class="b" d="M48.358 10.7H61.39v4.075h-8.007v2.905h7.1v3.82h-7.1v7.179l-5.025.055z" fill="#003c72"></path><g class="c1"><path class="b" d="M76.209 28.562a5.666 5.666 0 01-2.231.408c-1.7 0-2.838-.574-3.3-1.722a4.7 4.7 0 01-4.053 1.833c-2.949 0-4.694-1.645-4.694-4.252 0-2.695 1.855-4.164 5.08-4.164a5.926 5.926 0 013.291.829V20.4a1.816 1.816 0 00-2.021-2.087 4.833 4.833 0 00-3.622 1.712l-2.375-2.85a8.364 8.364 0 016.472-2.7c3.568 0 5.953 1.525 5.953 5.4v4.286c0 .96.475 1.214 1.491 1.082zm-5.909-3.2V23.9a3.4 3.4 0 00-1.866-.475c-1.2 0-1.734.431-1.734 1.281s.552 1.292 1.668 1.292a2.934 2.934 0 001.932-.64M77.632 11.266c0-1.38.983-2.219 2.762-2.219s2.761.839 2.761 2.219-.983 2.232-2.761 2.232-2.762-.84-2.762-2.232m.387 3.546h4.749v13.927h-4.749zM93.979 14.48v4.993c-1.723-.144-2.993.132-3.954 1.236v8.03h-4.749V14.812h3.768l.486 2.418c.784-2.043 2.22-2.849 4.451-2.75M48.358 31.585h5.025v13.861h6.218v4.175H48.358zM76.158 49.444a5.67 5.67 0 01-2.231.408c-1.7 0-2.838-.573-3.3-1.722a4.7 4.7 0 01-4.053 1.833c-2.95 0-4.694-1.645-4.694-4.252 0-2.7 1.855-4.163 5.08-4.163a5.934 5.934 0 013.292.828v-1.094a1.817 1.817 0 00-2.022-2.087 4.831 4.831 0 00-3.622 1.712l-2.375-2.85a8.36 8.36 0 016.472-2.694c3.568 0 5.953 1.524 5.953 5.4v4.286c0 .961.475 1.214 1.491 1.082zm-5.908-3.2v-1.458a3.411 3.411 0 00-1.867-.475c-1.2 0-1.735.431-1.735 1.282s.553 1.292 1.669 1.292a2.941 2.941 0 001.933-.641M91.585 42.376c0 4.429-2.1 7.587-5.6 7.587a4.108 4.108 0 01-3.91-2.374l-.519 2.032h-3.6V31.494h4.748v5.79a4.075 4.075 0 013.678-1.932c3.4 0 5.2 2.871 5.2 7.024m-4.9.209c0-2-.541-3.479-2.12-3.479a1.963 1.963 0 00-1.856 1.249v4.66a1.935 1.935 0 001.812 1.193c1.436 0 2.164-1.292 2.164-3.623M93.496 42.641c0-4.539 2.463-7.289 7.013-7.289s7.025 2.75 7.025 7.289c0 4.561-2.474 7.322-7.025 7.322s-7.013-2.761-7.013-7.322m9.112 0c0-2.706-.784-3.667-2.1-3.667s-2.1.961-2.1 3.667c0 2.75.784 3.689 2.1 3.689s2.1-.939 2.1-3.689M118.288 35.363v4.992c-1.722-.144-2.993.132-3.954 1.237v8.029h-4.749V35.694h3.767l.485 2.419c.784-2.044 2.221-2.85 4.451-2.75" fill="#003c72"></path><path class="d" d="M21.112 25.1a33.033 33.033 0 01-4.624-3.313 38.2 38.2 0 00-4.222 3.314 38.2 38.2 0 004.222 3.314 33.045 33.045 0 014.624-3.315" fill="#00345d"></path><path class="e" d="M16.488 28.417a38.2 38.2 0 01-4.222-3.314 38.2 38.2 0 014.222-3.314 33.033 33.033 0 004.624 3.313 33.045 33.045 0 00-4.624 3.315" fill="#1a709e"></path><path class="f" d="M18.373 20.588a30.791 30.791 0 004.923 3.328 32.969 32.969 0 017.387-2.623 25.467 25.467 0 01-7.015-3.326 38.386 38.386 0 00-5.295 2.621" fill="#2984a9"></path><path class="g" d="M18.398 29.617a38.163 38.163 0 005.3 2.621 25.427 25.427 0 017.015-3.327 32.916 32.916 0 01-7.385-2.622 30.765 30.765 0 00-4.925 3.328" fill="#307597"></path><path class="b" d="M18.373 20.588q-.961.573-1.885 1.2a33.033 33.033 0 004.624 3.313q1.066-.633 2.184-1.186a30.791 30.791 0 01-4.923-3.328M16.488 28.417a38.2 38.2 0 01-4.222-3.314A37.287 37.287 0 00.013 50h5.3a32.069 32.069 0 0111.174-21.583" fill="#003c72"></path><path class="f" d="M7.521 50h5.309a24.878 24.878 0 0110.838-17.762 38.277 38.277 0 01-5.295-2.621A30.049 30.049 0 007.521 50M18.373 20.588a38.386 38.386 0 015.295-2.621A24.866 24.866 0 0112.802 0h-5.3a30.035 30.035 0 0010.867 20.588" fill="#2984a9"></path><path class="h" d="M23.296 23.916a30.791 30.791 0 01-4.923-3.328 38.386 38.386 0 015.295-2.621 25.467 25.467 0 007.015 3.326 32.969 32.969 0 00-7.387 2.623" fill="#005d8c"></path><path class="g" d="M38.123 22.56h-.094a30.805 30.805 0 00-12.285 2.54 30.822 30.822 0 0012.286 2.543h.088a2.544 2.544 0 10.006-5.085" fill="#307597"></path><path class="f" d="M40.752 25.059v-.055a2.64 2.64 0 00-2.641-2.641h-.085a25.663 25.663 0 01-7.346-1.07 32.969 32.969 0 00-7.387 2.623q1.192.646 2.447 1.187-1.252.542-2.445 1.186a32.982 32.982 0 007.385 2.622 25.67 25.67 0 017.337-1.069h.094a2.644 2.644 0 002.645-2.641c0-.049 0-.1-.007-.143" fill="#2984a9"></path></g><g class="i1" fill="#4bb6e8"><path d="M16.488 28.417q.923.625 1.885 1.2a30.765 30.765 0 014.925-3.328q-1.117-.554-2.186-1.187a33.045 33.045 0 00-4.624 3.315M5.294 0H0a37.283 37.283 0 0012.266 25.1 38.213 38.213 0 014.222-3.315A32.047 32.047 0 015.294 0"></path></g><g class="c1"><path class="k" d="M23.668 32.238a38.165 38.165 0 01-5.295-2.621 30.765 30.765 0 014.925-3.328l.013.006a30.8 30.8 0 00-4.913 3.322 38.222 38.222 0 005.279 2.615l-.009.006" fill="#8bccf0"></path><path class="l" d="M23.677 32.232a38.291 38.291 0 01-5.28-2.615 30.837 30.837 0 014.914-3.322 32.949 32.949 0 007.372 2.616 25.429 25.429 0 00-7.006 3.321" fill="#43a1cd"></path><path d="M40.744 32.612c.008-.092.013-.185.012-.28a2.642 2.642 0 00-2.64-2.607h-.086a33.344 33.344 0 01-7.346-.815 25.427 25.427 0 00-7.015 3.327q1.415.568 2.884 1.029A22.584 22.584 0 0015.335 50h5.333a17.523 17.523 0 0117.326-14.509h.12a2.641 2.641 0 002.641-2.642c0-.081-.005-.16-.012-.24" fill="#4bb6e8"></path><path class="b" d="M26.552 16.938q-1.469.457-2.883 1.029a25.419 25.419 0 007.014 3.326 33.337 33.337 0 017.337-.814h.094a2.645 2.645 0 002.645-2.642c0-.094-.005-.186-.014-.278.005-.068.01-.137.01-.208a2.641 2.641 0 00-2.641-2.641h-.12A17.517 17.517 0 0120.634 0h-5.325a22.573 22.573 0 0011.243 16.938" fill="#003c72"></path></g></symbol></defs>
                    <use xlink:href="#icon-logo"></use>
                </svg>