<svg id="Layer_1" data-name="Layer 1" xmlns="http://www.w3.org/2000/svg" viewBox="0 0 50 50"><defs><style>.cls-1{fill:#005ca6;}.cls-2{fill:#002f60;}</style></defs><title>rba-symbol-colored</title><path class="cls-1" d="M47.67,24.46l-9.92-5.11a.67.67,0,0,0-.28-.06.52.52,0,0,0-.21,0,13.48,13.48,0,0,1,0,11.34.52.52,0,0,0,.21,0,.67.67,0,0,0,.28-.06l9.92-5.11a.61.61,0,0,0,0-1.08"/><path class="cls-1" d="M35.55,11.89A17.23,17.23,0,0,1,38,14.45,5.44,5.44,0,0,1,40,15l2,1a19.59,19.59,0,0,0-8.12-8.23L35,10a5.54,5.54,0,0,1,.57,1.87"/><path class="cls-1" d="M38,35.55a17.16,17.16,0,0,1-2.49,2.55A5.59,5.59,0,0,1,35,40l-1.13,2.2A19.61,19.61,0,0,0,42,34l-2,1a5.5,5.5,0,0,1-1.94.57"/><path class="cls-1" d="M11.14,14.6a17.34,17.34,0,0,1,3.43-3.36A5.61,5.61,0,0,1,15,10L16.4,7.33a19.7,19.7,0,0,0-9.3,9.19L10,15a5.38,5.38,0,0,1,1.12-.42"/><path class="cls-1" d="M12.25,30.65a.67.67,0,0,0,.28.06.52.52,0,0,0,.21,0,13.48,13.48,0,0,1,0-11.34.52.52,0,0,0-.21,0,.67.67,0,0,0-.28.06L2.33,24.46a.61.61,0,0,0,0,1.08Z"/><path class="cls-1" d="M14.56,38.75a17.69,17.69,0,0,1-3.41-3.34A6.42,6.42,0,0,1,10,35l-2.91-1.5a19.61,19.61,0,0,0,9.29,9.18L15,40a5.73,5.73,0,0,1-.46-1.23"/><path class="cls-2" d="M25,11.49a13.41,13.41,0,0,1,5.67,1.25.6.6,0,0,0,0-.49L25.54,2.33a.61.61,0,0,0-1.08,0l-5.11,9.92a.6.6,0,0,0,0,.49A13.41,13.41,0,0,1,25,11.49"/><path class="cls-1" d="M25,38.51a13.41,13.41,0,0,1-5.67-1.25.6.6,0,0,0,0,.49l5.11,9.92a.61.61,0,0,0,1.08,0l5.11-9.92a.6.6,0,0,0,0-.49A13.41,13.41,0,0,1,25,38.51"/></svg>