<svg xmlns:xlink="http://www.w3.org/1999/xlink" class="block header-dark:hidden header-dark-open:block xl:header-dark-open:hidden w-22.5 xl:w-31.5 h-auto" xmlns="http://www.w3.org/2000/svg" width="127" height="34" viewBox="0 0 127 34" fill="none"><g clip-path="url(#logo-svg)" fill="none"><path fill="#333333" d="M98.844 19.157a12.025 12.025 0 0 0-.596-2.112 10.722 10.722 0 0 0-2.34-3.665 11.493 11.493 0 0 0-3.716-2.533 12.474 12.474 0 0 0-4.923-.918 12.782 12.782 0 0 0-4.977.918 11.374 11.374 0 0 0-3.78 2.533 10.927 10.927 0 0 0-2.377 3.719 12.162 12.162 0 0 0-.84 4.463c-.005 1.496.28 2.98.84 4.372a10.93 10.93 0 0 0 2.438 3.697 11.14 11.14 0 0 0 3.723 2.451 12.8 12.8 0 0 0 4.906.913c2.286.05 4.541-.522 6.518-1.652a10.151 10.151 0 0 0 4.05-4.199l.276-.566-5.195-1.421-.218.28a6.671 6.671 0 0 1-2.807 2.105 6.784 6.784 0 0 1-3.505.405 6.736 6.736 0 0 1-3.225-1.408 6.577 6.577 0 0 1-2.047-2.829h17.77l.097-.413c.067-.289.105-.584.113-.88V21.38c0-.739-.067-1.476-.201-2.203l.016-.02Zm-11.533-4.29a6.801 6.801 0 0 1 3.525.997 6.651 6.651 0 0 1 2.469 2.669H81.318a6.651 6.651 0 0 1 2.468-2.67 6.801 6.801 0 0 1 3.525-.995ZM48.113 19.158a12.025 12.025 0 0 0-.597-2.112 10.719 10.719 0 0 0-2.339-3.665 11.538 11.538 0 0 0-3.717-2.533c-1.56-.642-3.24-.96-4.93-.934a12.782 12.782 0 0 0-4.97.934 11.374 11.374 0 0 0-3.78 2.533A10.94 10.94 0 0 0 25.4 17.1a12.254 12.254 0 0 0-.82 4.463 11.68 11.68 0 0 0 .84 4.372 10.963 10.963 0 0 0 2.44 3.695 11.173 11.173 0 0 0 3.722 2.453c1.557.623 3.224.934 4.905.914 2.288.05 4.544-.523 6.523-1.653a10.11 10.11 0 0 0 4.01-4.215l.282-.566-5.195-1.405-.219.28a6.676 6.676 0 0 1-2.807 2.105 6.789 6.789 0 0 1-3.506.404 6.74 6.74 0 0 1-3.226-1.408 6.583 6.583 0 0 1-2.048-2.828h17.77l.1-.413c.074-.3.113-.608.118-.917v-1.037a12.027 12.027 0 0 0-.197-2.203l.02.017Zm-17.544-.624a6.614 6.614 0 0 1 2.465-2.676 6.764 6.764 0 0 1 3.529-.991c1.247 0 2.47.343 3.529.991a6.613 6.613 0 0 1 2.464 2.676H30.57ZM16.235 14.893l-4.565-1.876c-2.398-.96-4.658-1.868-4.658-4.195 0-2.17 1.991-3.574 5.07-3.574a9.985 9.985 0 0 1 2.52.318l.067.037h.038c.075.025.147.05.214.079h.03l.062.02.177.079.084.037.13.058c.126.058.248.12.348.178l.202.111.13.083.193.12.135.095a6.513 6.513 0 0 1 1.34 1.248l.243.285.336-.112 4.851-1.277-.294-.574a9.877 9.877 0 0 0-4.028-4.078c-1.424-.795-3-1.293-4.628-1.463-.706-.131-1.423-.2-2.142-.203-2.97 0-5.687.868-7.66 2.447a8.06 8.06 0 0 0-2.306 2.802 7.926 7.926 0 0 0-.828 3.512c0 3.805 2.255 6.574 6.896 8.454l4.545 1.901c2.772 1.145 4.775 1.975 4.775 4.546 0 2.57-2.217 4.07-5.783 4.07h-.79a7.14 7.14 0 0 1-1.923-.447l-.089-.033-.08-.037-.117-.074-.076-.033h-.029l-.1-.05a5.17 5.17 0 0 1-.362-.186l-.067-.037-.084-.045h-.03l-.142-.116-.19-.12-.117-.083a7.922 7.922 0 0 1-.584-.462 6.72 6.72 0 0 1-.76-.827l-.235-.285-.345.112L.75 26.59l.29.574c.196.394.422.773.676 1.133l.076.128.121.14a10.575 10.575 0 0 0 3.155 2.727 11.453 11.453 0 0 0 3.36 1.286l.058.024h.055a12.45 12.45 0 0 0 3.112.364c3.385 0 6.3-.926 8.4-2.674a8.584 8.584 0 0 0 2.36-2.963 8.448 8.448 0 0 0 .84-3.673c0-5.194-3.548-7.339-7.018-8.752v-.012ZM2.157 28.013v-.021.02Z"></path><path fill="#333333" d="M117.744 33.093h-6.006l-5.006-7.45-5.04 7.45h-6.035l8.093-11.376-8.35-11.69h6.032l16.312 23.066ZM67.756.103v11.591a11.35 11.35 0 0 0-6.338-1.905c-6.375 0-11.566 5.228-11.566 11.657 0 6.43 5.19 11.657 11.566 11.657a11.35 11.35 0 0 0 6.338-1.905v1.81h5.758V.103h-5.758Zm-6.338 14.93a6.6 6.6 0 0 1 3.67.993 6.444 6.444 0 0 1 2.48 2.84 6.318 6.318 0 0 1 .445 3.719 6.377 6.377 0 0 1-1.74 3.33 6.549 6.549 0 0 1-3.334 1.805 6.618 6.618 0 0 1-3.791-.334 6.499 6.499 0 0 1-2.955-2.359 6.34 6.34 0 0 1-1.112-3.58 6.28 6.28 0 0 1 1.821-4.496 6.49 6.49 0 0 1 4.516-1.918Z"></path><path fill="#D50045" d="M116.124.438a10.75 10.75 0 0 0-5.598 1.568 10.519 10.519 0 0 0-3.918 4.235 10.311 10.311 0 0 0 1.053 10.966l5.061-7.484h5.649l-7.35 10.33a10.778 10.778 0 0 0 9.343.432 10.622 10.622 0 0 0 3.861-2.807 10.399 10.399 0 0 0 2.21-4.193c.402-1.545.439-3.16.109-4.722a10.378 10.378 0 0 0-2.015-4.288 10.592 10.592 0 0 0-3.727-2.977 10.766 10.766 0 0 0-4.678-1.06Z"></path><path fill="#333333" d="m16.235 14.892-4.565-1.876c-2.398-.958-4.658-1.867-4.658-4.194 0-2.17 1.991-3.574 5.07-3.574a9.985 9.985 0 0 1 2.52.318l.067.037h.038c.075.025.147.05.214.079h.03l.062.02.177.079.084.037.13.058c.126.058.248.12.348.178l.202.111.13.083.193.12.135.095a6.514 6.514 0 0 1 1.34 1.248l.243.285.336-.112 4.851-1.277-.294-.574a9.877 9.877 0 0 0-4.028-4.079c-1.424-.794-3-1.292-4.628-1.462A12.036 12.036 0 0 0 12.09.289c-2.97 0-5.687.868-7.66 2.446a8.06 8.06 0 0 0-2.306 2.802 7.926 7.926 0 0 0-.828 3.512c0 3.806 2.255 6.575 6.896 8.455l4.545 1.9c2.772 1.145 4.775 1.976 4.775 4.546 0 2.57-2.217 4.07-5.783 4.07h-.79a7.148 7.148 0 0 1-1.923-.446l-.089-.033-.08-.037-.117-.074-.076-.034h-.029l-.1-.05a5.167 5.167 0 0 1-.362-.185l-.067-.037-.084-.046h-.03l-.142-.115-.19-.12-.117-.083a7.895 7.895 0 0 1-.584-.463 6.718 6.718 0 0 1-.76-.826l-.235-.285-.345.111L.75 26.591l.29.574c.196.394.422.772.676 1.132l.076.128.121.14a10.574 10.574 0 0 0 3.155 2.728 11.45 11.45 0 0 0 3.36 1.285l.058.025h.055c1.017.252 2.063.374 3.112.364 3.385 0 6.3-.926 8.4-2.674a8.585 8.585 0 0 0 2.36-2.963 8.448 8.448 0 0 0 .84-3.673c0-5.194-3.548-7.339-7.018-8.752v-.013ZM2.157 28.012v-.02.02Z"></path><path fill="#333333" d="m16.235 14.892-4.565-1.876c-2.398-.958-4.658-1.867-4.658-4.194 0-2.17 1.991-3.574 5.07-3.574a9.985 9.985 0 0 1 2.52.318l.067.037h.038c.075.025.147.05.214.079h.03l.062.02.177.079.084.037.13.058c.126.058.248.12.348.178l.202.111.13.083.193.12.135.095a6.514 6.514 0 0 1 1.34 1.248l.243.285.336-.112 4.851-1.277-.294-.574a9.877 9.877 0 0 0-4.028-4.079c-1.424-.794-3-1.292-4.628-1.462A12.036 12.036 0 0 0 12.09.289c-2.97 0-5.687.868-7.66 2.446a8.06 8.06 0 0 0-2.306 2.802 7.926 7.926 0 0 0-.828 3.512c0 3.806 2.255 6.575 6.896 8.455l4.545 1.9c2.772 1.145 4.775 1.976 4.775 4.546 0 2.57-2.217 4.07-5.783 4.07h-.79a7.148 7.148 0 0 1-1.923-.446l-.089-.033-.08-.037-.117-.074-.076-.034h-.029l-.1-.05a5.167 5.167 0 0 1-.362-.185l-.067-.037-.084-.046h-.03l-.142-.115-.19-.12-.117-.083a7.895 7.895 0 0 1-.584-.463 6.718 6.718 0 0 1-.76-.826l-.235-.285-.345.111L.75 26.591l.29.574c.196.394.422.772.676 1.132l.076.128.121.14a10.574 10.574 0 0 0 3.155 2.728 11.45 11.45 0 0 0 3.36 1.285l.058.025h.055c1.017.252 2.063.374 3.112.364 3.385 0 6.3-.926 8.4-2.674a8.585 8.585 0 0 0 2.36-2.963 8.448 8.448 0 0 0 .84-3.673c0-5.194-3.548-7.339-7.018-8.752v-.013ZM2.157 28.012v-.02.02Z"></path></g><defs><clipPath id="logo-svg"><path fill="#fff" d="M.75.103h126v33H.75z"></path></clipPath></defs></svg>