<svg xmlns="http://www.w3.org/2000/svg" xmlns:xlink="http://www.w3.org/1999/xlink" version="1.1" id="Ebene_1" x="0px" y="0px" viewBox="0 0 43.5 43.6" style="enable-background:new 0 0 43.5 43.6;" xml:space="preserve" width="43.5"  height="43.6" >
<style type="text/css">
	.st0{fill:#00F38C;}
</style>
<g>
	<path class="st0" d="M19.8,30.1l5-1.3c0.2,0,0.3-0.1,0.4-0.2L42.8,11c1-1,1-2.5,0-3.5l-1.4-1.4c-0.5-0.5-1.1-0.7-1.8-0.7   c-0.7,0-1.3,0.3-1.8,0.7L34.9,9V3.5c0-1.9-1.6-3.5-3.5-3.5c0,0,0,0,0,0h-28C1.5,0,0,1.6,0,3.5v30.4c0,1.9,1.6,3.5,3.5,3.5h13.3   l8.4,6c0.4,0.3,0.9,0.2,1.2-0.2c0.1-0.1,0.2-0.3,0.2-0.5v-5.3h5c1.9,0,3.5-1.6,3.5-3.5v-9.6c0-0.5-0.4-0.8-0.8-0.8   c-0.5,0-0.8,0.4-0.8,0.8v9.6c0,1-0.8,1.8-1.8,1.8l0,0h-7.2c-0.5,0-0.8,0.4-0.8,0.8s0.4,0.8,0.8,0.8h0.5V41l-7.3-5.2   c-0.1-0.1-0.3-0.2-0.5-0.2H3.4c-1,0-1.8-0.8-1.8-1.8l0,0V3.5c0-1,0.8-1.8,1.8-1.8c0,0,0,0,0,0h28c1,0,1.8,0.8,1.8,1.8c0,0,0,0,0,0   v7.2L20.3,23.6c-0.1,0.1-0.2,0.3-0.2,0.4l-1.3,5c-0.1,0.3,0,0.6,0.2,0.8C19.2,30.1,19.5,30.2,19.8,30.1L19.8,30.1z M37.6,8.7   l2.5,2.5L24.6,26.8l-2.5-2.5L37.6,8.7z M21.4,25.9l1.6,1.6l-2.2,0.6L21.4,25.9z M39.6,7.1c0.2,0,0.4,0.1,0.6,0.2l1.4,1.4   c0.3,0.3,0.3,0.8,0,1.1c0,0,0,0,0,0l-0.2,0.2l-2.5-2.5L39,7.3C39.2,7.2,39.4,7.1,39.6,7.1z"/>
	<path class="st0" d="M8,8.6h6.9c0.5,0,0.8-0.4,0.8-0.8c0-0.5-0.4-0.8-0.8-0.8H8c-0.5,0-0.8,0.4-0.8,0.8C7.1,8.2,7.5,8.6,8,8.6z"/>
	<path class="st0" d="M23.9,8.6c0.5,0,0.8-0.4,0.8-0.8c0-0.5-0.4-0.8-0.8-0.8h-5.3c-0.5,0-0.8,0.4-0.8,0.8c0,0.5,0.4,0.8,0.8,0.8   H23.9z"/>
	<path class="st0" d="M8,15.7h3.3c0.5,0,0.8-0.4,0.8-0.8c0-0.5-0.4-0.8-0.8-0.8H8c-0.5,0-0.8,0.4-0.8,0.8C7.1,15.3,7.5,15.7,8,15.7z   "/>
	<path class="st0" d="M18.3,22c0-0.5-0.4-0.8-0.8-0.8h-3c-0.5,0-0.8,0.4-0.8,0.8c0,0.5,0.4,0.8,0.8,0.8h3   C17.9,22.8,18.3,22.5,18.3,22L18.3,22z"/>
	<path class="st0" d="M8,30h8.2c0.5,0,0.8-0.4,0.8-0.8c0-0.5-0.4-0.8-0.8-0.8H8c-0.5,0-0.8,0.4-0.8,0.8C7.1,29.6,7.5,30,8,30z"/>
	<path class="st0" d="M28.7,8.6c0.5,0,0.8-0.4,0.8-0.8c0-0.5-0.4-0.8-0.8-0.8h-1.6c-0.5,0-0.8,0.4-0.8,0.8c0,0.5,0.4,0.8,0.8,0.8   l0,0H28.7z"/>
	<path class="st0" d="M24.7,14.9c0-0.5-0.4-0.8-0.8-0.8h-9.2c-0.5,0-0.8,0.4-0.8,0.8c0,0.5,0.4,0.8,0.8,0.8h9.2   C24.4,15.7,24.7,15.4,24.7,14.9L24.7,14.9z"/>
	<path class="st0" d="M10.6,21.1H8.8C8.3,21.1,8,21.5,8,22c0,0.5,0.4,0.8,0.8,0.8h1.8c0.5,0,0.8-0.4,0.8-0.8   C11.5,21.5,11.1,21.1,10.6,21.1L10.6,21.1z"/>
</g>
</svg>